<svg width="436" height="420" fill="none" xmlns="http://www.w3.org/2000/svg"><path d="M169.822 232.413L97.86 160.452l-.353-.354-.354.354-33.203 33.203-.353.353.353.354 161.145 161.144.353.354.354-.354 33.203-33.202.353-.354-.353-.354-45.903-45.902-1.297-35.018 105.397 23.104.268.059.193-.194 39.511-39.511.656-.656-.908-.188-148.061-30.583L194.513 64.24l-.115-1.033-.735.735-40.84 40.84-.173.173.031.243 11.953 94.075.001.007.001.007 5.186 33.126z" stroke="#91FF05" stroke-opacity=".16"/><path d="M184.847 232.413l-71.961-71.961-.354-.354-.353.354-33.203 33.203-.353.353.353.354 161.145 161.144.353.354.354-.354 33.203-33.202.353-.354-.353-.354-45.903-45.902-1.297-35.018 105.397 23.104.268.059.193-.194 39.511-39.511.656-.656-.908-.187-148.061-30.584L209.539 64.24l-.115-1.033-.735.735-40.84 40.84-.173.173.031.243 11.953 94.075.001.007.001.007 5.185 33.126z" stroke="#91FF05" stroke-opacity=".16"/></svg>