<svg width="436" height="420" viewBox="0 0 436 420" fill="none" xmlns="http://www.w3.org/2000/svg">
<path d="M169.822 232.413L97.8601 160.452L97.5066 160.098L97.153 160.452L63.9502 193.655L63.5966 194.008L63.9502 194.362L225.095 355.506L225.448 355.86L225.802 355.506L259.005 322.304L259.358 321.95L259.005 321.596L213.102 275.694L211.805 240.676L317.202 263.78L317.47 263.839L317.663 263.645L357.174 224.134L357.83 223.478L356.922 223.29L208.861 192.707L194.513 64.2403L194.398 63.2071L193.663 63.9422L152.823 104.782L152.65 104.955L152.681 105.198L164.634 199.273L164.635 199.28L164.636 199.287L169.822 232.413Z" stroke="#91FF05" stroke-opacity="0.16"/>
<path d="M184.847 232.413L112.886 160.452L112.532 160.098L112.179 160.452L78.976 193.655L78.6225 194.008L78.976 194.362L240.121 355.506L240.474 355.86L240.828 355.506L274.031 322.304L274.384 321.95L274.031 321.596L228.128 275.694L226.831 240.676L332.228 263.78L332.496 263.839L332.689 263.645L372.2 224.134L372.856 223.478L371.948 223.291L223.887 192.707L209.539 64.2403L209.424 63.2072L208.689 63.9422L167.849 104.782L167.676 104.955L167.707 105.198L179.66 199.273L179.661 199.28L179.662 199.287L184.847 232.413Z" stroke="#91FF05" stroke-opacity="0.16"/>
</svg>
